<svg width="20" height="20" viewBox="0 0 20 20" fill="none" xmlns="http://www.w3.org/2000/svg">
<path d="M18.25 0.4375H1.75C1.4019 0.4375 1.06806 0.575781 0.821922 0.821922C0.575781 1.06806 0.4375 1.4019 0.4375 1.75V18.25C0.4375 18.5981 0.575781 18.9319 0.821922 19.1781C1.06806 19.4242 1.4019 19.5625 1.75 19.5625H18.25C18.5981 19.5625 18.9319 19.4242 19.1781 19.1781C19.4242 18.9319 19.5625 18.5981 19.5625 18.25V1.75C19.5625 1.4019 19.4242 1.06806 19.1781 0.821922C18.9319 0.575781 18.5981 0.4375 18.25 0.4375ZM18.4375 18.25C18.4375 18.2997 18.4177 18.3474 18.3826 18.3826C18.3474 18.4177 18.2997 18.4375 18.25 18.4375H1.75C1.70027 18.4375 1.65258 18.4177 1.61742 18.3826C1.58225 18.3474 1.5625 18.2997 1.5625 18.25V1.75C1.5625 1.70027 1.58225 1.65258 1.61742 1.61742C1.65258 1.58225 1.70027 1.5625 1.75 1.5625H18.25C18.2997 1.5625 18.3474 1.58225 18.3826 1.61742C18.4177 1.65258 18.4375 1.70027 18.4375 1.75V18.25ZM6.8125 8.5V14.5C6.8125 14.6492 6.75324 14.7923 6.64775 14.8977C6.54226 15.0032 6.39918 15.0625 6.25 15.0625C6.10082 15.0625 5.95774 15.0032 5.85225 14.8977C5.74676 14.7923 5.6875 14.6492 5.6875 14.5V8.5C5.6875 8.35082 5.74676 8.20774 5.85225 8.10225C5.95774 7.99676 6.10082 7.9375 6.25 7.9375C6.39918 7.9375 6.54226 7.99676 6.64775 8.10225C6.75324 8.20774 6.8125 8.35082 6.8125 8.5ZM15.0625 11.125V14.5C15.0625 14.6492 15.0032 14.7923 14.8977 14.8977C14.7923 15.0032 14.6492 15.0625 14.5 15.0625C14.3508 15.0625 14.2077 15.0032 14.1023 14.8977C13.9968 14.7923 13.9375 14.6492 13.9375 14.5V11.125C13.9375 10.578 13.7202 10.0534 13.3334 9.66659C12.9466 9.2798 12.422 9.0625 11.875 9.0625C11.328 9.0625 10.8034 9.2798 10.4166 9.66659C10.0298 10.0534 9.8125 10.578 9.8125 11.125V14.5C9.8125 14.6492 9.75324 14.7923 9.64775 14.8977C9.54226 15.0032 9.39918 15.0625 9.25 15.0625C9.10082 15.0625 8.95774 15.0032 8.85225 14.8977C8.74676 14.7923 8.6875 14.6492 8.6875 14.5V8.5C8.6875 8.35082 8.74676 8.20774 8.85225 8.10225C8.95774 7.99676 9.10082 7.9375 9.25 7.9375C9.39918 7.9375 9.54226 7.99676 9.64775 8.10225C9.75324 8.20774 9.8125 8.35082 9.8125 8.5V8.69781C10.2761 8.30439 10.8425 8.05177 11.4449 7.96973C12.0474 7.8877 12.6607 7.97968 13.2126 8.23483C13.7645 8.48998 14.2319 8.89765 14.5597 9.40974C14.8874 9.92183 15.0619 10.517 15.0625 11.125ZM7.1875 5.875C7.1875 6.06042 7.13252 6.24168 7.0295 6.39585C6.92649 6.55002 6.78007 6.67018 6.60877 6.74114C6.43746 6.81209 6.24896 6.83066 6.0671 6.79449C5.88525 6.75831 5.7182 6.66902 5.58709 6.53791C5.45598 6.4068 5.36669 6.23975 5.33051 6.0579C5.29434 5.87604 5.31291 5.68754 5.38386 5.51623C5.45482 5.34493 5.57498 5.19851 5.72915 5.0955C5.88332 4.99248 6.06458 4.9375 6.25 4.9375C6.49864 4.9375 6.7371 5.03627 6.91291 5.21209C7.08873 5.3879 7.1875 5.62636 7.1875 5.875Z" fill="black"/>
</svg>
