<svg width="26" height="26" viewBox="0 0 26 26" fill="none" xmlns="http://www.w3.org/2000/svg">
<path d="M13 0.25C10.4783 0.25 8.01321 0.997774 5.91648 2.39876C3.81976 3.79975 2.18556 5.79103 1.22054 8.12079C0.255524 10.4505 0.00303191 13.0141 0.494993 15.4874C0.986955 17.9607 2.20127 20.2325 3.98439 22.0156C5.76751 23.7987 8.03935 25.0131 10.5126 25.505C12.9859 25.997 15.5495 25.7445 17.8792 24.7795C20.209 23.8144 22.2003 22.1802 23.6012 20.0835C25.0022 17.9868 25.75 15.5217 25.75 13C25.746 9.61971 24.4015 6.379 22.0112 3.98877C19.621 1.59854 16.3803 0.25397 13 0.25ZM23.1963 8.25H18.1488C17.547 5.93113 16.4497 3.77026 14.9325 1.91625C16.7173 2.23095 18.4 2.97081 19.8384 4.07326C21.2768 5.17572 22.4285 6.60835 23.1963 8.25ZM24.25 13C24.2508 14.101 24.0895 15.196 23.7713 16.25H18.4763C18.8413 14.0987 18.8413 11.9013 18.4763 9.75H23.7713C24.0895 10.804 24.2508 11.899 24.25 13ZM13 23.9788C12.2779 23.2421 11.641 22.4266 11.1013 21.5475C10.3729 20.3627 9.80696 19.0855 9.41876 17.75H16.5813C16.193 19.0855 15.6272 20.3627 14.8988 21.5475C14.359 22.4266 13.7221 23.2421 13 23.9788ZM9.05626 16.25C8.64797 14.1026 8.64797 11.8974 9.05626 9.75H16.9438C17.352 11.8974 17.352 14.1026 16.9438 16.25H9.05626ZM1.75001 13C1.74916 11.899 1.91048 10.804 2.22876 9.75H7.52376C7.15868 11.9013 7.15868 14.0987 7.52376 16.25H2.22876C1.91048 15.196 1.74916 14.101 1.75001 13ZM13 2.02125C13.7221 2.75788 14.359 3.57343 14.8988 4.4525C15.6272 5.63726 16.193 6.91452 16.5813 8.25H9.41876C9.80696 6.91452 10.3729 5.63726 11.1013 4.4525C11.641 3.57343 12.2779 2.75788 13 2.02125ZM11.0675 1.91625C9.55029 3.77026 8.45301 5.93113 7.85126 8.25H2.80376C3.57147 6.60835 4.72323 5.17572 6.16162 4.07326C7.60002 2.97081 9.28275 2.23095 11.0675 1.91625ZM2.80376 17.75H7.85126C8.45301 20.0689 9.55029 22.2297 11.0675 24.0837C9.28275 23.7691 7.60002 23.0292 6.16162 21.9267C4.72323 20.8243 3.57147 19.3916 2.80376 17.75ZM14.9288 24.0837C16.4473 22.2301 17.5459 20.0692 18.1488 17.75H23.1963C22.4285 19.3916 21.2768 20.8243 19.8384 21.9267C18.4 23.0292 16.7173 23.7691 14.9325 24.0837H14.9288Z" fill="black"/>
</svg>
