<svg width="303" height="431" viewBox="0 0 303 431" fill="none" xmlns="http://www.w3.org/2000/svg">
<g style="mix-blend-mode:plus-darker">
<path d="M176.234 177.742L99.5924 193.669L100.433 211.471L232.969 178.444L231.107 164.587L176.234 177.742Z" fill="white" stroke="#383D53"/>
<path d="M1.71183 256.491L78.3539 240.564L77.513 222.762L-55.0224 255.789L-53.1603 269.646L1.71183 256.491Z" fill="white" stroke="#383D53"/>
<path d="M68.1118 121.133L100.14 192.596L85.2318 202.35L34.2873 75.5556L46.5995 68.9426L68.1118 121.133Z" fill="white" stroke="#383D53"/>
<path d="M108.24 310.931L76.2114 239.468L91.1197 229.715L142.064 356.509L129.752 363.122L108.24 310.931Z" fill="white" stroke="#383D53"/>
<ellipse cx="29.1557" cy="29.2532" rx="29.1557" ry="29.2532" transform="matrix(0.890459 0.455064 -0.454688 0.890651 35.3193 46.452)" fill="white" stroke="#383D53"/>
<path d="M44.1959 75.4523C-23.9714 97.6522 -38.3012 109.714 -36.9452 112.97C-21.6611 116.866 27.0906 102.591 49.556 94.967C115.718 73.42 131.775 60.7961 131.532 57.1774C125.368 51.7902 70.7394 67.116 44.1959 75.4523Z" fill="white" stroke="#E65F25"/>
<ellipse cx="14.2677" cy="14.3154" rx="14.2677" ry="14.3154" transform="matrix(0.890459 0.455064 -0.454688 0.890651 41.7852 66.5316)" fill="white" stroke="#383D53"/>
<ellipse cx="29.1557" cy="29.2532" rx="29.1557" ry="29.2532" transform="matrix(0.890459 0.455064 -0.454688 0.890651 117.82 307.476)" fill="white" stroke="#383D53"/>
<path d="M126.697 336.476C58.5296 358.676 44.1998 370.738 45.5557 373.994C60.8398 377.89 109.592 363.616 132.057 355.991C198.219 334.444 214.276 321.82 214.033 318.201C207.869 312.814 153.24 328.14 126.697 336.476Z" fill="white" stroke="#E65F25"/>
<ellipse cx="14.2677" cy="14.3154" rx="14.2677" ry="14.3154" transform="matrix(0.890459 0.455064 -0.454688 0.890651 124.286 327.555)" fill="white" stroke="#383D53"/>
<ellipse cx="29.1557" cy="29.2532" rx="29.1557" ry="29.2532" transform="matrix(-0.890459 -0.455064 -0.454688 0.890651 256.161 160.094)" fill="white" stroke="#383D53"/>
<path d="M227.476 169.899C249.457 238.169 248.09 256.855 244.658 257.664C232.544 247.559 215.526 199.673 208.532 176.993C187.197 110.731 188.007 90.3157 191.08 88.3908C199.056 90.2303 218.667 143.496 227.476 169.899Z" fill="white" stroke="#E65F25"/>
<ellipse cx="14.2677" cy="14.3154" rx="14.2677" ry="14.3154" transform="matrix(-0.890459 -0.455064 -0.454688 0.890651 236.112 166.624)" fill="white" stroke="#383D53"/>
<path d="M-30.9549 255.91C-8.97353 324.179 -10.3408 342.866 -13.7722 343.675C-25.8866 333.57 -42.9044 285.684 -49.899 263.004C-71.2339 196.742 -70.4233 176.327 -67.3511 174.402C-59.375 176.241 -39.7636 229.507 -30.9549 255.91Z" fill="white" stroke="#E65F25"/>
<path d="M139.305 101.483C126.923 95.1552 121.24 101.191 119.947 104.999L90.1859 163.295C85.199 173.063 81.3322 176.815 80.0221 177.47C73.7337 180.614 69.9863 187.572 68.8987 190.658L45.5728 236.35C41.8972 242.02 41.5367 249.352 41.8159 252.309C41.706 259.405 37.2852 267.873 35.0885 271.22L12.768 314.942C10.5159 319.354 19.5068 324.677 24.2838 326.787L38.2127 333.905C47.8081 338.809 52.0736 337.016 53.0069 335.506L75.3274 291.784C78.5448 285.482 85.28 278.66 88.2454 276.037C94.2363 271.946 97.8891 266.065 98.9667 263.636L122.293 217.945C124.102 214.4 128.727 205.341 126.452 201.198C124.37 194.572 128.233 186.878 130.425 183.859L160.185 125.563C164.69 116.74 157.428 110.579 153.234 108.601L139.305 101.483Z" fill="white" stroke="#383D53"/>
</g>
</svg>
