<svg width="389" height="630" viewBox="0 0 389 630" fill="none" xmlns="http://www.w3.org/2000/svg">
<g style="mix-blend-mode:plus-darker">
<path d="M483.974 402.021L470.764 400.928C469.911 404.047 467.693 408.544 463.673 413.729L479.89 459.223L471.619 462.174L457.007 421.187C447.184 430.867 431.529 441.64 407.87 450.083C386.618 457.666 369.34 459.647 356.267 458.986L370.293 498.332L362.022 501.284L346.565 457.924C338.035 456.438 332.18 453.799 329.115 451.475L317.81 458.994L306.369 459.593L262.737 552.973L248.357 545.329L292.057 455.409L284.848 441.723L289.937 400.421L284.795 385.997L236.963 389.13L227.753 379.642L129.53 414.693L123.654 398.208L221.877 363.157L223.374 351.01L257.222 324.995L252.244 301.222L226.818 278.938L225.146 264.438L135.101 221.083L141.033 205.03L233.88 249.708L242.383 240.867L267.836 246.881C268.281 246.03 268.959 245.001 269.892 243.825L258.14 210.856L267.756 207.424L277.914 235.919C286.561 228.8 300.969 219.96 323.03 212.088C347.915 203.207 367.327 200.986 379.609 201.188L368.958 171.31L377.353 168.314L389.371 202.027C390.353 202.205 391.2 202.402 391.908 202.606L408.547 183.894L423.09 182.188L463.62 89.9148L482.502 97.1128L437.836 190.862L444.978 201.088L438.12 240.698L449.533 256.368L493.23 254.711L502.072 263.169L599.262 228.487L605.873 247.032L508.683 281.714L506.819 292.832L465.434 323.859L469.841 336.222L503.375 364.903L505.047 379.403L593.255 417.607L586.357 437.489L498.748 394.426L483.974 402.021Z" fill="white" stroke="#383D53" stroke-linejoin="round"/>
<ellipse cx="30.7381" cy="30.626" rx="30.7381" ry="30.626" transform="matrix(-0.941829 0.336092 0.335782 0.94194 278.898 491.461)" fill="white" stroke="#383D53"/>
<path d="M264.232 522.244C311.203 538.929 331.535 556.294 335.829 562.891C311.091 561.499 273.835 545.915 258.3 538.297C198.834 507.489 187.124 495.564 188.702 493.453C215.149 497.022 250.075 514.134 264.232 522.244Z" fill="white" stroke="#E65F25"/>
<ellipse cx="13.654" cy="13.6303" rx="13.654" ry="13.6303" transform="matrix(-0.941829 0.336092 0.335782 0.94194 268.564 513.194)" fill="white" stroke="#383D53"/>
<ellipse cx="30.7381" cy="30.626" rx="30.7381" ry="30.626" transform="matrix(0.941829 -0.336092 0.335782 0.94194 117.723 201.646)" fill="white" stroke="#383D53"/>
<path d="M148.549 216.195C122.732 258.855 117.973 285.173 118.821 293C137.094 276.259 156.084 240.604 163.295 224.869C189.853 163.364 191.377 146.716 188.82 146.08C170.6 165.589 154.381 200.952 148.549 216.195Z" fill="white" stroke="#E65F25"/>
<ellipse cx="13.654" cy="13.6303" rx="13.654" ry="13.6303" transform="matrix(0.941829 -0.336092 0.335782 0.94194 139.47 211.931)" fill="white" stroke="#383D53"/>
<ellipse cx="30.7381" cy="30.626" rx="30.7381" ry="30.626" transform="matrix(-0.941829 0.336092 0.335782 0.94194 124.596 376.968)" fill="white" stroke="#383D53"/>
<path d="M113.587 415.737C97.1329 369.581 83.497 344.406 78.7358 337.589C80.8789 361.909 93.2127 403.265 99.1117 420.903C114.978 465.411 128.621 486.247 133.46 491.101C133.691 485.212 130.041 461.894 113.587 415.737Z" fill="white" stroke="#E65F25" stroke-linejoin="round"/>
<ellipse cx="13.654" cy="13.6303" rx="13.654" ry="13.6303" transform="matrix(-0.941829 0.336092 0.335782 0.94194 114.719 399)" fill="white" stroke="#383D53"/>
</g>
</svg>
